<svg width="293" height="188" viewBox="0 0 293 188" fill="none" xmlns="http://www.w3.org/2000/svg">
<path d="M107.818 71.2421C110.082 69.9228 111.78 68.0381 112.912 65.588C114.044 63.1378 114.61 60.1223 114.61 56.5414C114.61 48.814 111.591 43.7253 105.554 41.2752C100.46 39.5789 94.0459 38.7308 86.311 38.7308H43.014V75.2H90.2728C97.4418 75.2 103.29 73.8807 107.818 71.2421ZM103.007 56.5414C103.007 59.1799 102.63 60.782 101.875 61.3474C99.234 63.0436 95.3665 63.8917 90.2728 63.8917H54.6164V50.0391H86.311C92.5367 50.0391 97.6304 50.6987 101.592 52.018L101.734 52.1594L102.158 52.5835L102.583 53.2902L102.866 54.5624L103.007 56.5414ZM107.252 104.036C106.686 103.659 106.026 103.376 105.271 103.188C104.516 102.999 103.715 102.764 102.866 102.481C102.017 102.198 101.121 102.01 100.177 101.916L97.3474 101.633L94.2346 101.35L90.8387 101.209H43.014V145.311H90.2728C93.8573 145.311 97.0173 145.076 99.7528 144.605C102.488 144.133 104.894 143.427 106.969 142.484C114.138 138.903 117.722 132.024 117.722 121.847C117.722 117.512 116.874 113.837 115.176 110.821C113.478 107.806 110.836 105.544 107.252 104.036ZM54.6164 112.517H90.8387C93.8573 112.706 96.3098 112.941 98.1964 113.224C100.083 113.507 101.498 113.931 102.441 114.496C105.082 115.627 106.403 118.077 106.403 121.847C106.403 127.124 104.894 130.516 101.875 132.024C101.687 132.213 101.451 132.354 101.168 132.448C100.885 132.542 100.507 132.637 100.036 132.731C99.5642 132.825 98.9982 132.966 98.3379 133.155C97.6776 133.343 96.9701 133.485 96.2155 133.579C95.4609 133.673 94.5647 133.72 93.5271 133.72H54.6164V112.517ZM241.105 81.985C239.407 80.4772 237.567 79.2521 235.586 78.3098C233.606 77.3674 231.53 76.6607 229.361 76.1895C227.191 75.7183 224.88 75.4827 222.428 75.4827C218.277 75.4827 214.598 76.0481 211.391 77.1789C208.184 78.3098 205.448 80.006 203.184 82.2677C198.657 86.9794 195.827 93.2932 194.695 101.209V101.774H249.877L249.594 101.209C248.84 92.7278 246.01 86.3198 241.105 81.985ZM211.674 90.1835C213.938 87.9218 217.522 86.791 222.428 86.791C226.767 86.791 230.351 87.9218 233.181 90.1835H211.674ZM291.759 96.403C290.061 85.4717 286.288 75.6712 280.44 67.0015C278.553 64.3629 276.572 61.9128 274.497 59.6511C272.422 57.3895 270.205 55.3163 267.847 53.4316C265.489 51.5469 262.989 49.8506 260.348 48.3429V2.82707H184.224V48.6256C179.697 51.4526 175.452 54.8451 171.49 58.803C162.623 67.6612 156.775 79.1579 153.945 93.2932C152.813 91.7855 151.634 90.3248 150.407 88.9113C149.181 87.4977 147.813 86.1313 146.304 84.812C146.493 84.6236 146.681 84.4822 146.87 84.388C147.059 84.2937 147.247 84.0581 147.436 83.6812C154.039 75.7654 157.341 65.4937 157.341 52.8662C157.341 40.9925 154.228 30.6266 148.002 21.7684C137.626 7.63308 120.741 0.376942 97.3474 0H0V184.042H91.6877C100.743 184.042 109.139 183.194 116.874 181.498C121.213 180.555 125.269 179.236 129.042 177.54C132.815 175.844 136.305 173.77 139.512 171.32C142.342 169.247 144.936 166.891 147.295 164.253C149.653 161.614 151.775 158.693 153.662 155.489C155.171 153.039 156.492 150.588 157.624 148.138C159.51 152.85 161.821 157.091 164.557 160.86C167.292 164.63 170.452 167.928 174.037 170.755C188.375 182.252 204.788 188 223.277 188C245.915 188 263.649 180.932 276.478 166.797C284.968 157.939 289.778 148.704 290.91 139.092L291.759 132.872H292.608V121.847C292.797 116.569 292.797 111.811 292.608 107.57C292.42 103.329 292.137 99.607 291.759 96.403ZM126.212 85.6602L125.363 85.9429L126.495 86.5083C134.607 89.3353 140.739 94 144.889 100.502C149.04 107.005 151.115 114.873 151.115 124.108C151.115 127.124 150.879 130.139 150.407 133.155C149.936 136.17 149.134 139.045 148.002 141.777C146.87 144.51 145.55 147.102 144.04 149.552C141.022 154.641 137.249 158.881 132.721 162.274C127.627 166.232 121.59 168.964 114.61 170.472C107.629 171.791 99.9886 172.451 91.6877 172.451H11.6025V11.3083H97.0644C116.685 11.6852 130.551 17.4336 138.663 28.5534L140.927 31.9459L142.767 35.6211L144.182 39.7203L145.314 43.9609L145.88 48.3429L146.021 52.8662C146.021 62.6667 143.569 70.5825 138.663 76.6135C135.834 79.8175 131.683 82.8331 126.212 85.6602ZM222.428 39.0135C219.22 39.0135 216.391 39.1078 213.938 39.2962H195.827V14.1353H249.028V39.2962H230.917C227.521 39.1078 224.691 39.0135 222.428 39.0135ZM194.129 121.847C194.129 124.862 194.459 127.689 195.119 130.328C195.78 132.966 196.629 135.369 197.666 137.537C198.704 139.704 199.977 141.589 201.487 143.191C202.996 144.793 204.788 146.254 206.863 147.573C211.768 150.588 217.617 152.096 224.408 152.096C226.106 152.096 227.804 152.002 229.502 151.814C231.2 151.625 232.757 151.295 234.172 150.824C235.586 150.353 236.954 149.74 238.275 148.986C239.595 148.233 240.822 147.384 241.954 146.442C242.708 145.877 243.463 145.17 244.218 144.322C244.972 143.474 245.727 142.578 246.481 141.636C247.236 140.694 247.896 139.563 248.462 138.244H279.591C278.648 145.217 274.874 152.19 268.271 159.164C257.518 170.849 242.52 176.692 223.277 176.692C221.013 176.692 218.796 176.597 216.626 176.409C214.457 176.221 212.334 175.891 210.259 175.42C208.184 174.948 206.109 174.43 204.033 173.865C201.958 173.299 199.93 172.64 197.949 171.886C195.968 171.132 194.035 170.237 192.148 169.2C190.261 168.163 188.422 167.033 186.63 165.808C184.837 164.582 183.092 163.31 181.394 161.991C169.32 152.19 163.283 136.265 163.283 114.214C163.283 93.6702 168.754 77.9328 179.697 67.0015C188.941 57.5779 200.543 52.1123 214.504 50.6045H230.068C233.841 50.9815 237.379 51.6411 240.68 52.5835C243.982 53.5258 247.142 54.6566 250.16 55.9759C254.311 57.8607 258.131 60.2637 261.621 63.185C265.111 66.1063 268.177 69.5459 270.818 73.5038C275.723 80.4772 278.836 88.6757 280.157 98.0992C281.1 103.565 281.477 111.386 281.289 121.564H194.129V121.847ZM234.879 137.678C232.426 139.751 228.936 140.788 224.408 140.788C222.711 140.788 221.201 140.647 219.881 140.364C218.56 140.081 217.334 139.751 216.202 139.374C215.07 138.997 213.938 138.526 212.806 137.961C210.731 136.453 209.127 134.757 207.995 132.872H238.275C237.143 134.945 236.011 136.547 234.879 137.678Z" fill="black"/>
</svg>
