<svg width="17" height="18" viewBox="0 0 17 18" fill="none" xmlns="http://www.w3.org/2000/svg">
<path d="M9.84906 8.75L16.8592 0.351611C16.9767 0.21204 16.8779 0 16.6963 0H14.5652C14.4397 0 14.3195 0.0563649 14.2367 0.152991L8.45506 7.08052L2.6734 0.152991C2.59328 0.0563649 2.47311 0 2.34492 0H0.213855C0.0322602 0 -0.0665489 0.21204 0.0509536 0.351611L7.06105 8.75L0.0509536 17.1484C0.024632 17.1795 0.00774565 17.2175 0.00229878 17.258C-0.00314809 17.2985 0.00307331 17.3397 0.020225 17.3767C0.0373767 17.4137 0.0647382 17.445 0.0990604 17.4669C0.133383 17.4887 0.173224 17.5002 0.213855 17.5H2.34492C2.47044 17.5 2.59061 17.4436 2.6734 17.347L8.45506 10.4195L14.2367 17.347C14.3168 17.4436 14.437 17.5 14.5652 17.5H16.6963C16.8779 17.5 16.9767 17.288 16.8592 17.1484L9.84906 8.75Z" fill="#444444"/>
</svg>
