<svg width="135" height="135" viewBox="0 0 135 135" fill="none" xmlns="http://www.w3.org/2000/svg">
<path fill-rule="evenodd" clip-rule="evenodd" d="M88.8054 2.0556C89.2408 1.61907 89.7581 1.27273 90.3276 1.03642C90.897 0.800106 91.5076 0.678467 92.1241 0.678467C92.7407 0.678467 93.3512 0.800106 93.9207 1.03642C94.4902 1.27273 95.0074 1.61907 95.4429 2.0556L132.943 39.5556C133.379 39.991 133.726 40.5083 133.962 41.0778C134.198 41.6473 134.32 42.2578 134.32 42.8743C134.32 43.4909 134.198 44.1014 133.962 44.6709C133.726 45.2404 133.379 45.7577 132.943 46.1931L115.112 64.0243L107.34 95.0837C106.749 97.4487 105.553 99.6195 103.87 101.383C102.187 103.147 100.075 104.442 97.7397 105.143L0.755371 134.243L29.8554 37.2493C30.5568 34.9174 31.8517 32.8076 33.6134 31.1264C35.3751 29.4452 37.5432 28.2503 39.9054 27.6587L70.9648 19.8962L88.8054 2.0556ZM71.9304 29.3181L42.1835 36.7525C41.3939 36.9496 40.6691 37.3488 40.0807 37.911C39.4922 38.4732 39.0602 39.1789 38.8272 39.9587L14.7335 120.256L95.0491 96.1618C95.8243 95.9269 96.5254 95.4951 97.084 94.9086C97.6427 94.322 98.0398 93.6007 98.2366 92.815L105.68 63.0587L71.9304 29.3087V29.3181Z" fill="#444444"/>
<path fill-rule="evenodd" clip-rule="evenodd" d="M15.5487 120.012L63.9987 80.375C65.8529 80.375 67.6654 79.8252 69.2072 78.795C70.7489 77.7649 71.9505 76.3007 72.66 74.5877C73.3696 72.8746 73.5553 70.9896 73.1935 69.171C72.8318 67.3525 71.9389 65.682 70.6278 64.3709C69.3167 63.0598 67.6462 62.1669 65.8277 61.8051C64.0091 61.4434 62.1241 61.6291 60.411 62.3386C58.698 63.0482 57.2338 64.2498 56.2037 65.7915C55.1735 67.3332 54.6237 69.1458 54.6237 71L14.9862 119.45L14.7424 120.256L15.5487 120.012Z" fill="#444444"/>
</svg>
