<svg width="132" height="132" viewBox="0 0 132 132" fill="none" xmlns="http://www.w3.org/2000/svg">
<path d="M112.875 0.375H131.625V19.125H112.875V0.375Z" fill="#444444"/>
<path d="M112.875 28.5H131.625V47.25H112.875V28.5Z" fill="#444444"/>
<path d="M84.75 0.375H103.5V19.125H84.75V0.375Z" fill="#444444"/>
<path d="M84.75 28.5H103.5V47.25H84.75V28.5Z" fill="#444444"/>
<path d="M122.25 66V94.125H9.75V19.125H66V9.75H9.75C7.2636 9.75 4.87903 10.7377 3.12087 12.4959C1.36272 14.254 0.375 16.6386 0.375 19.125V94.125C0.375 96.6114 1.36272 98.996 3.12087 100.754C4.87903 102.512 7.2636 103.5 9.75 103.5H47.25V122.25H28.5V131.625H103.5V122.25H84.75V103.5H122.25C124.736 103.5 127.121 102.512 128.879 100.754C130.637 98.996 131.625 96.6114 131.625 94.125V66H122.25ZM75.375 122.25H56.625V103.5H75.375V122.25Z" fill="#444444"/>
</svg>
