<svg width="88" height="188" viewBox="0 0 88 188" fill="none" xmlns="http://www.w3.org/2000/svg">
<path d="M19.0265 67.2899H24.0265V62.2899V36.4056C24.0265 36.3199 24.0263 36.2274 24.0261 36.1282C24.0197 33.4392 24.002 25.8909 28.0021 18.9175C31.8709 12.1732 40.0862 5 59.054 5H83V27.9487H66.7062C62.9527 27.9487 59.6727 29.8173 57.4721 31.8827C55.3723 33.8534 53.2415 36.976 53.2415 40.5313V62.1769V67.1769H58.2415H82.526C81.979 73.3619 81.3034 79.1181 80.7154 83.6418C80.4487 85.6934 80.2005 87.4874 79.9913 88.9482H58.0809H53.0809V93.9482V183H24.0265V93.9388V88.9388H19.0265H5V67.2899H19.0265Z" stroke="black" stroke-width="10"/>
</svg>
