<svg xmlns="http://www.w3.org/2000/svg" viewBox="0 0 117.3 175.44"><defs><style>.cls-1{fill:none;stroke:#000;stroke-miterlimit:10;}</style></defs><g id="Calque_2" data-name="Calque 2"><g id="Calque_3" data-name="Calque 3"><path id="path0_fill" data-name="path0 fill" class="cls-1" d="M29.57,174.94a29.08,29.08,0,0,0,29.08-29.07V116.8H29.57a29.07,29.07,0,0,0,0,58.14Z"/><path id="path1_fill" data-name="path1 fill" class="cls-1" d="M.5,87.72A29.08,29.08,0,0,1,29.57,58.65H58.65V116.8H29.57A29.09,29.09,0,0,1,.5,87.72Z"/><path id="path1_fill-2" data-name="path1 fill" class="cls-1" d="M.5,29.57A29.09,29.09,0,0,1,29.57.5H58.65V58.65H29.57A29.09,29.09,0,0,1,.5,29.57Z"/><path id="path2_fill" data-name="path2 fill" class="cls-1" d="M58.65.5H87.72a29.08,29.08,0,1,1,0,58.15H58.65Z"/><path id="path3_fill" data-name="path3 fill" class="cls-1" d="M116.8,87.72A29.08,29.08,0,1,1,87.72,58.65,29.09,29.09,0,0,1,116.8,87.72Z"/></g></g></svg>