<svg width="177" height="259" viewBox="0 0 177 259" fill="none" xmlns="http://www.w3.org/2000/svg">
<path d="M46.3046 254.18C57.3629 254.18 67.9685 249.788 75.7893 241.97C83.6101 234.152 88.0057 223.548 88.0095 212.489V170.799H46.3046C35.2475 170.799 24.6434 175.191 16.8249 183.01C9.0064 190.828 4.61401 201.432 4.61401 212.489C4.61401 223.546 9.0064 234.151 16.8249 241.969C24.6434 249.788 35.2475 254.18 46.3046 254.18V254.18Z" stroke="black" stroke-width="8" stroke-miterlimit="10"/>
<path d="M4.61401 129.094C4.61781 118.038 9.01142 107.436 16.8291 99.6184C24.6468 91.8007 35.2487 87.4071 46.3046 87.4033H88.0095V170.799H46.3046C35.2474 170.791 24.6455 166.394 16.8282 158.574C9.01096 150.754 4.61781 140.151 4.61401 129.094V129.094Z" stroke="black" stroke-width="8" stroke-miterlimit="10"/>
<path d="M4.61401 45.6996C4.62161 34.6449 9.01644 24.0452 16.8333 16.2283C24.6501 8.41146 35.2499 4.01663 46.3046 4.00903H88.0095V87.4045H46.3046C35.2474 87.3969 24.6455 83.0001 16.8282 75.1801C9.01096 67.3602 4.61781 56.7568 4.61401 45.6996V45.6996Z" stroke="black" stroke-width="8" stroke-miterlimit="10"/>
<path d="M88.0095 4.00717H129.7C135.241 3.90441 140.747 4.907 145.896 6.95636C151.045 9.00572 155.734 12.0607 159.688 15.9429C163.643 19.8251 166.785 24.4566 168.929 29.5667C171.074 34.6768 172.178 40.163 172.178 45.7049C172.178 51.2467 171.074 56.733 168.929 61.8431C166.785 66.9532 163.643 71.5847 159.688 75.4669C155.734 79.349 151.045 82.4041 145.896 84.4534C140.747 86.5028 135.241 87.5054 129.7 87.4026H88.0095V4.00717Z" stroke="black" stroke-width="8" stroke-miterlimit="10"/>
<path d="M171.405 129.094C171.408 137.343 168.964 145.408 164.384 152.268C159.803 159.128 153.29 164.476 145.67 167.634C138.05 170.793 129.664 171.621 121.573 170.013C113.482 168.406 106.05 164.435 100.216 158.603C94.3816 152.771 90.4081 145.34 88.7978 137.25C87.1874 129.159 88.0125 120.773 91.1686 113.152C94.3247 105.53 99.6701 99.0161 106.529 94.4329C113.387 89.8496 121.451 87.4033 129.7 87.4033C140.757 87.4071 151.361 91.8003 159.181 99.6175C167.001 107.435 171.398 118.037 171.405 129.094V129.094Z" stroke="black" stroke-width="8" stroke-miterlimit="10"/>
</svg>
