<svg width="198" height="198" viewBox="0 0 198 198" fill="none" xmlns="http://www.w3.org/2000/svg">
<path d="M107.546 15.4444C126.551 15.4444 137.307 19.6222 141.728 20.6667C147.71 16.2278 163.809 5 181.607 5C185.526 15.4444 184.865 28.1867 181.607 36.3333C190.152 46.7778 193 57.2222 193 72.8889C193 95.7413 187.497 110.301 175.91 119.889C164.322 129.477 151.857 134.25 136.031 135.556C143.437 141.175 141.728 155.128 141.728 161.667V193" stroke="black" stroke-width="10" stroke-linecap="round" stroke-linejoin="round"/>
<path d="M107.545 15.4444C88.5402 15.4444 77.7843 19.6222 73.3634 20.6667C67.3816 16.2278 51.282 5 33.4846 5C29.5651 15.4444 30.226 28.1867 33.4846 36.3333C24.9392 46.7778 22.0907 57.2222 22.0907 72.8889C22.0907 95.7413 27.594 110.301 39.1816 119.889C50.7692 129.477 63.2342 134.25 79.0604 135.556C71.6543 141.175 73.3634 155.128 73.3634 161.667V193" stroke="black" stroke-width="10" stroke-linecap="round" stroke-linejoin="round"/>
<path d="M73.3636 172.111C57.3438 172.111 40.9593 166.231 31.3428 159.703C21.7491 153.185 18.9006 142.417 5 135.555" stroke="black" stroke-width="10" stroke-linecap="round"/>
</svg>
