<svg width="240" height="213" viewBox="0 0 240 213" fill="none" xmlns="http://www.w3.org/2000/svg">
<path fill-rule="evenodd" clip-rule="evenodd" d="M119.189 7C91.8229 7.00343 65.5783 17.8762 46.2273 37.2273C26.8762 56.5783 16.0034 82.8229 16 110.189C16 155.755 45.7562 194.374 86.2635 208.307C91.335 208.941 93.2238 205.771 93.2238 203.236V185.511C64.7484 191.851 58.422 171.591 58.422 171.591C53.9844 159.559 47.0241 156.389 47.0241 156.389C37.528 150.063 47.6451 150.063 47.6451 150.063C57.7751 150.697 63.4806 160.827 63.4806 160.827C72.9767 176.649 87.5313 172.212 93.2368 169.689C93.8578 162.728 97.0275 158.304 99.5632 155.768C76.7674 153.232 52.7166 144.37 52.7166 104.484C52.7166 93.0989 56.5073 84.2238 63.4806 76.6295C62.8337 74.7277 59.043 63.9767 64.7484 50.043C64.7484 50.043 73.6106 47.5073 93.2238 60.807C101.452 58.2712 110.327 57.6373 119.189 57.6373C128.052 57.6373 136.914 58.9052 145.142 60.807C164.768 47.5202 173.63 50.043 173.63 50.043C179.323 63.9767 175.519 74.7277 174.885 77.2635C181.857 84.8588 185.702 94.8079 185.649 105.118C185.649 145.004 161.585 153.232 138.816 155.768C142.606 158.925 145.776 165.251 145.776 174.747V203.236C145.776 205.771 147.665 208.928 152.736 208.307C173.255 201.382 191.079 188.184 203.687 170.577C216.296 152.97 223.052 131.845 223 110.189C222.366 53.2127 176.166 7 119.189 7Z" fill="black"/>
<mask id="path-2-inside-1" fill="white">
<rect width="240" height="213" rx="3"/>
</mask>
<rect width="240" height="213" rx="3" stroke="black" stroke-width="10" mask="url(#path-2-inside-1)"/>
</svg>
