<svg width="142" height="132" viewBox="0 0 142 132" fill="none" xmlns="http://www.w3.org/2000/svg">
<path d="M94.2305 6.4404C94.4114 5.85191 94.4747 5.23354 94.4167 4.6206C94.3587 4.00765 94.1806 3.41213 93.8924 2.86803C93.6043 2.32394 93.2118 1.84193 92.7373 1.44952C92.2629 1.05712 91.7158 0.762001 91.1273 0.581023C90.5389 0.400045 89.9205 0.336751 89.3075 0.394753C88.6946 0.452755 88.0991 0.630918 87.555 0.91907C87.0109 1.20722 86.5289 1.59972 86.1365 2.07415C85.7441 2.54859 85.4489 3.09566 85.268 3.68415L47.768 125.559C47.4025 126.748 47.5241 128.033 48.106 129.132C48.688 130.23 49.6826 131.053 50.8711 131.419C52.0596 131.784 53.3446 131.662 54.4435 131.08C55.5423 130.499 56.365 129.504 56.7305 128.315L94.2305 6.4404ZM41.5055 29.8685C41.942 30.304 42.2883 30.8212 42.5247 31.3907C42.761 31.9602 42.8826 32.5707 42.8826 33.1873C42.8826 33.8038 42.761 34.4144 42.5247 34.9838C42.2883 35.5533 41.942 36.0706 41.5055 36.506L12.0023 65.9998L41.5055 95.4935C42.3857 96.3737 42.8801 97.5675 42.8801 98.8123C42.8801 100.057 42.3857 101.251 41.5055 102.131C40.6253 103.011 39.4315 103.506 38.1867 103.506C36.9419 103.506 35.7482 103.011 34.868 102.131L2.05547 69.3185C1.61894 68.8831 1.2726 68.3658 1.03629 67.7963C0.799983 67.2269 0.678345 66.6163 0.678345 65.9998C0.678345 65.3832 0.799983 64.7727 1.03629 64.2032C1.2726 63.6337 1.61894 63.1165 2.05547 62.681L34.868 29.8685C35.3034 29.432 35.8207 29.0857 36.3902 28.8493C36.9596 28.613 37.5701 28.4914 38.1867 28.4914C38.8033 28.4914 39.4138 28.613 39.9833 28.8493C40.5528 29.0857 41.07 29.432 41.5055 29.8685ZM100.493 29.8685C100.056 30.304 99.7101 30.8212 99.4738 31.3907C99.2375 31.9602 99.1158 32.5707 99.1158 33.1873C99.1158 33.8038 99.2375 34.4144 99.4738 34.9838C99.7101 35.5533 100.056 36.0706 100.493 36.506L129.996 65.9998L100.493 95.4935C100.057 95.9294 99.7114 96.4467 99.4756 97.0162C99.2397 97.5856 99.1183 98.1959 99.1183 98.8123C99.1183 99.4286 99.2397 100.039 99.4756 100.608C99.7114 101.178 100.057 101.695 100.493 102.131C100.929 102.567 101.446 102.913 102.016 103.148C102.585 103.384 103.195 103.506 103.812 103.506C104.428 103.506 105.038 103.384 105.608 103.148C106.177 102.913 106.695 102.567 107.13 102.131L139.943 69.3185C140.379 68.8831 140.726 68.3658 140.962 67.7963C141.198 67.2269 141.32 66.6163 141.32 65.9998C141.32 65.3832 141.198 64.7727 140.962 64.2032C140.726 63.6337 140.379 63.1165 139.943 62.681L107.13 29.8685C106.695 29.432 106.178 29.0857 105.608 28.8493C105.039 28.613 104.428 28.4914 103.812 28.4914C103.195 28.4914 102.585 28.613 102.015 28.8493C101.446 29.0857 100.928 29.432 100.493 29.8685Z" fill="#444444"/>
</svg>
