<svg width="179" height="188" viewBox="0 0 179 188" fill="none" xmlns="http://www.w3.org/2000/svg">
<path d="M22.4781 6.47321e-06C19.5277 -0.00223869 16.6059 0.579573 13.8793 1.71221C11.1528 2.84485 8.67511 4.50611 6.58772 6.60111C4.50032 8.69612 2.84415 11.1838 1.71381 13.9221C0.583476 16.6603 0.00111629 19.5955 0 22.56M22.4781 6.47321e-06C25.428 5.62264e-06 28.3491 0.584101 31.0742 1.71892C33.7994 2.85373 36.2753 4.51702 38.3605 6.61372C40.4456 8.71042 42.0991 11.1994 43.2264 13.9385C44.3538 16.6776 44.9329 19.613 44.9307 22.5771C44.9307 35.0364 34.861 45.3764 22.4526 45.3764C10.0611 45.3764 0 35.0364 0 22.56M22.4781 6.47321e-06L22.4781 5.00001C24.7678 5.00001 27.0356 5.45334 29.1521 6.33471C31.2687 7.2161 33.1933 8.50858 34.8152 10.1395C36.4371 11.7704 37.7245 13.7078 38.6027 15.8415C39.481 17.9753 39.9324 20.2629 39.9307 22.5733V22.5771C39.9307 32.3602 32.0151 40.3764 22.4526 40.3764C12.915 40.3764 5.00101 32.3687 5 22.5619L0 22.56M22.4781 6.47321e-06L22.4743 5.00001C20.184 4.99826 17.9153 5.44987 15.7975 6.32964C13.6796 7.20943 11.7535 8.50048 10.1297 10.1302C8.50581 11.76 7.21615 13.6966 6.33553 15.8299C5.45513 17.9627 5.00112 20.2496 5 22.56H0M97.269 84.5924H100.288L101.694 81.9203C106.142 73.4656 115.359 64.8182 132.121 64.8182C150.544 64.8182 160.305 70.6976 165.859 79.4616C171.749 88.7555 173.6 102.289 173.6 119.055V183H144.844V126.9C144.844 119.838 144.835 110.523 141.867 102.99C140.326 99.0799 137.902 95.393 134.085 92.7173C130.255 90.033 125.45 88.6667 119.679 88.6667C113.994 88.6667 109.2 89.7835 105.291 92.0883C101.339 94.4177 98.6677 97.74 96.8989 101.496C93.522 108.668 93.2895 117.847 93.2895 125.866V183H64.5333V67.4758H91.7247V79.5924V84.5924H96.7247H97.269ZM36.8689 183H8.08723V67.4673H36.8689V183Z" stroke="black" stroke-width="10"/>
</svg>
