<svg width="179" height="188" viewBox="0 0 179 188" fill="none" xmlns="http://www.w3.org/2000/svg">
<path d="M0 22.56L5 22.5619L5 22.56H0ZM97.269 84.5924H100.288L101.694 81.9203C106.142 73.4656 115.359 64.8182 132.121 64.8182C150.544 64.8182 160.305 70.6976 165.859 79.4616C171.749 88.7555 173.6 102.289 173.6 119.055V183H144.844V126.9C144.844 119.838 144.835 110.523 141.867 102.99C140.326 99.0799 137.902 95.393 134.085 92.7173C130.255 90.033 125.45 88.6667 119.679 88.6667C113.994 88.6667 109.2 89.7835 105.291 92.0883C101.339 94.4177 98.6677 97.74 96.8989 101.496C93.522 108.668 93.2895 117.847 93.2895 125.866V183H64.5333V67.4758H91.7247V79.5924V84.5924H96.7247H97.269ZM36.8689 183H8.08723V67.4673H36.8689V183Z" stroke="black" stroke-width="10"/>
</svg>
