<svg width="240" height="213" viewBox="0 0 240 213" fill="none" xmlns="http://www.w3.org/2000/svg">
<path d="M53.4026 13C50.4621 12.9978 47.5501 13.5765 44.8327 14.7031C42.1154 15.8297 39.646 17.4821 37.5656 19.566C35.4852 21.6499 33.8346 24.1243 32.7081 26.848C31.5815 29.5717 31.0011 32.4913 31 35.44C31 47.85 41.0273 58.135 53.3771 58.135C65.7439 58.135 75.7797 47.85 75.7797 35.457C75.7819 32.5087 75.2048 29.5889 74.0812 26.8644C72.9577 24.1399 71.3097 21.6641 69.2316 19.5785C67.1535 17.493 64.6859 15.8386 61.9699 14.7098C59.2538 13.581 56.3426 13 53.4026 13V13ZM162.678 72.5C143.869 72.5 133.113 82.36 127.942 92.169H127.4V75.1435H90.3333V200H128.959V138.197C128.959 121.911 130.18 106.169 150.277 106.169C170.086 106.169 170.374 124.741 170.374 139.225V200H209V131.422C209 97.864 201.804 72.5 162.678 72.5ZM34.0769 75.135V200H72.7283V75.135H34.0769V75.135Z" fill="black"/>
<mask id="path-2-inside-1" fill="white">
<rect width="240" height="213" rx="3"/>
</mask>
<rect width="240" height="213" rx="3" stroke="black" stroke-width="10" mask="url(#path-2-inside-1)"/>
</svg>
