<svg width="69" height="75" viewBox="0 0 69 75" fill="none" xmlns="http://www.w3.org/2000/svg">
<path d="M3.125 74.9995C2.2962 74.9995 1.50134 74.6702 0.915292 74.0842C0.329241 73.4981 0 72.7033 0 71.8745V3.12447C9.29717e-05 2.58143 0.14169 2.0478 0.410834 1.57615C0.679978 1.10451 1.06738 0.711143 1.53485 0.434823C2.00233 0.158502 2.53374 0.00876513 3.07671 0.000373258C3.61968 -0.00801862 4.15546 0.125224 4.63125 0.386966L67.1313 34.762C67.6212 35.0317 68.0298 35.4281 68.3144 35.9096C68.5989 36.3911 68.749 36.9402 68.749 37.4995C68.749 38.0588 68.5989 38.6078 68.3144 39.0894C68.0298 39.5709 67.6212 39.9672 67.1313 40.237L4.63125 74.612C4.16985 74.866 3.65172 74.9993 3.125 74.9995ZM6.25 8.40572V66.5932L59.1406 37.4995L6.25 8.40572Z" fill="white"/>
</svg>
