<svg xmlns="http://www.w3.org/2000/svg" viewBox="0 0 214.44 212.89"><defs><style>.cls-1{fill:none;stroke:#000;stroke-miterlimit:10;}</style></defs><g id="Calque_2" data-name="Calque 2"><g id="Calque_5" data-name="Calque 5"><path class="cls-1" d="M63.54,81.67,148.75,4l1.86-1.7c9-.82,9.87,7.4,9.87,7.4l.82,146.4S37.93,62.38,28.89,55s-13.16-.82-13.16-.82l-14,13.16s-3.29,4.93.82,8.22S149.79,210.42,149.79,210.42s5.76,4.94,16.45-.82c12.31-6.63,41.12-19.74,41.12-19.74s6.58-1.64,6.58-14V33.74s-1.64-7.55-11.51-12.48-39.79-19-39.79-19-7.09-4-12,.06"/><path class="cls-1" d="M64,131.62c-20,15.28-35.68,27.25-37.63,28.63-5.82,4.12-9,0-9,0s-10.69-9.86-14.8-13.74,0-9.28,0-9.28l33.87-30.87"/><path class="cls-1" d="M159.66,58.27s-31.07,23.85-63.23,48.5"/><path class="cls-1" d="M161.3,154.91l-.82,49.45s.82,7.71-9,6.89"/></g></g></svg>