<svg width="278" height="277" viewBox="0 0 278 277" fill="none" xmlns="http://www.w3.org/2000/svg">
<path d="M83.6121 107.394L191.194 9.33145L193.542 7.18511C204.905 6.14982 206.004 16.528 206.004 16.528L207.039 201.366C207.039 201.366 51.2781 83.0392 39.8647 73.7216C28.4512 64.404 23.2495 72.6863 23.2495 72.6863L5.57377 89.3015C5.57377 89.3015 1.41997 95.5259 6.60906 99.6797C11.7982 103.833 192.507 269.947 192.507 269.947C192.507 269.947 199.78 276.184 213.276 268.912C228.818 260.541 265.192 243.989 265.192 243.989C265.192 243.989 273.5 241.919 273.5 226.314V46.8797C273.5 46.8797 271.429 37.3475 258.968 31.1231C246.507 24.8987 208.731 7.13461 208.731 7.13461C208.731 7.13461 199.779 2.0844 193.58 7.21037" stroke="black" stroke-width="8" stroke-miterlimit="10"/>
<path d="M84.1931 170.458C58.9421 189.75 39.1453 204.863 36.6833 206.605C29.3353 211.807 25.3203 206.605 25.3203 206.605C25.3203 206.605 11.8237 194.157 6.63457 189.258C1.44548 184.359 6.63457 177.541 6.63457 177.541L49.3972 138.566" stroke="black" stroke-width="8" stroke-miterlimit="10"/>
<path d="M204.969 77.8496C204.969 77.8496 165.741 107.961 125.138 139.083" stroke="black" stroke-width="8" stroke-miterlimit="10"/>
<path d="M207.039 199.863L206.004 262.296C206.004 262.296 207.039 272.03 194.641 270.995" stroke="black" stroke-width="8" stroke-miterlimit="10"/>
</svg>
