<svg width="296" height="296" viewBox="0 0 296 296" fill="none" xmlns="http://www.w3.org/2000/svg">
<path d="M292 4H4V292H292V4Z" stroke="black" stroke-width="8" stroke-miterlimit="10"/>
<path d="M24.3024 40.6833H53.4005L70.4637 110.401L91.5792 40.6833H112.085L131.52 110.401L150.263 40.6833H178.887L144.314 161.763H120.921L102.516 92.1937L82.0243 161.763H59.7569L24.3024 40.6833Z" stroke="black" stroke-width="8" stroke-miterlimit="10"/>
<path d="M140.614 236.975H31.6888V255.317H140.614V236.975Z" stroke="black" stroke-width="8" stroke-miterlimit="10"/>
<path d="M251.341 73.7042L264.27 53.504C264.27 53.504 240.268 35.1623 214.423 38.8253C188.577 42.4882 177.532 57.1939 177.532 73.7042C177.532 90.2144 184.918 103.062 203.391 108.556C221.863 114.051 240.309 115.896 240.309 126.911C240.309 137.927 232.922 139.907 220.928 138.91C208.934 137.914 196.004 130.574 188.618 125.066L173.845 143.381C173.845 143.381 194.175 163.581 225.536 163.581C256.898 163.581 267.997 141.563 267.997 128.729C267.997 115.896 266.154 101.217 240.309 92.0324C214.463 82.8481 203.391 84.7065 205.234 71.8323C207.077 58.9581 229.236 57.1939 251.341 73.7042Z" stroke="black" stroke-width="8" stroke-miterlimit="10"/>
</svg>
