<svg xmlns="http://www.w3.org/2000/svg" viewBox="0 0 213.5 214.86"><defs><style>.cls-1{fill:none;stroke:#000;stroke-miterlimit:10;}</style></defs><g id="Calque_2" data-name="Calque 2"><g id="Calque_4" data-name="Calque 4"><rect class="cls-1" x="0.5" y="0.5" width="212.5" height="213.86"/><polygon class="cls-1" points="15.48 27.74 36.95 27.74 49.54 79.51 65.12 27.74 80.25 27.74 94.59 79.51 108.42 27.74 129.54 27.74 104.03 117.65 86.77 117.65 73.19 65.99 58.07 117.65 41.64 117.65 15.48 27.74"/><rect class="cls-1" x="20.93" y="173.5" width="80.37" height="13.62"/><path class="cls-1" d="M183,52.26l9.54-15s-17.71-13.62-36.78-10.9S128.54,40,128.54,52.26s5.45,21.8,19.08,25.88,27.24,5.45,27.24,13.63-5.45,9.65-14.3,8.91-18.39-6.19-23.84-10.28L125.82,104s15,15,38.14,15,31.33-16.35,31.33-25.88-1.36-20.43-20.43-27.25-27.24-5.44-25.88-15S166.69,40,183,52.26Z"/></g></g></svg>